<svg width="980" height="372" viewBox="0 0 980 372" fill="none" xmlns="http://www.w3.org/2000/svg">
<path d="M-60.86 64.6089L-8.6802 34.9202L43.1178 65.2703" stroke="#2E2E2E" stroke-miterlimit="10"/>
<path d="M-60.86 64.6089L-9.06208 94.959L43.1178 65.2703" stroke="#2E2E2E" stroke-miterlimit="10"/>
<path d="M95.3074 35.5813L43.1176 65.27" stroke="#2E2E2E" stroke-miterlimit="10"/>
<path d="M43.1175 65.27L94.9255 95.6202" stroke="#2E2E2E" stroke-miterlimit="10"/>
<path d="M94.926 95.6202L147.106 65.9315" stroke="#2E2E2E" stroke-miterlimit="10"/>
<path d="M94.926 95.6204L94.5441 155.649L146.724 125.97" stroke="#2E2E2E" stroke-miterlimit="10"/>
<path d="M95.6895 -24.457L95.3076 35.5817" stroke="#2E2E2E" stroke-miterlimit="10"/>
<path d="M95.3079 35.5814L147.106 65.9314" stroke="#2E2E2E" stroke-miterlimit="10"/>
<path d="M-9.06208 94.959L-9.4439 154.988L42.7359 125.309L43.1178 65.2703" stroke="#2E2E2E" stroke-miterlimit="10"/>
<path d="M198.522 156.311L250.33 186.661" stroke="#2E2E2E" stroke-miterlimit="10"/>
<path d="M250.33 186.661L302.51 156.972" stroke="#2E2E2E" stroke-miterlimit="10"/>
<path d="M146.718 126.97L147.1 66.9317" stroke="#2E2E2E" stroke-miterlimit="10"/>
<path d="M146.724 125.97L198.522 156.311" stroke="#2E2E2E" stroke-miterlimit="10"/>
<path d="M251.094 66.5932L199.286 36.2431" stroke="#2E2E2E" stroke-miterlimit="10"/>
<path d="M250.712 126.632L251.094 66.5929" stroke="#2E2E2E" stroke-miterlimit="10"/>
<path d="M198.522 156.31L250.712 126.632" stroke="#2E2E2E" stroke-miterlimit="10"/>
<path d="M147.106 65.9318L198.904 96.2819" stroke="#2E2E2E" stroke-miterlimit="10"/>
<path d="M198.904 96.2816L251.094 66.5929" stroke="#2E2E2E" stroke-miterlimit="10"/>
<path d="M198.904 96.2818L198.522 156.311" stroke="#2E2E2E" stroke-miterlimit="10"/>
<path d="M250.712 126.632L302.51 156.972" stroke="#2E2E2E" stroke-miterlimit="10"/>
<path d="M303.274 36.9045L251.094 66.5932" stroke="#2E2E2E" stroke-miterlimit="10"/>
<path d="M251.094 66.5929L302.892 96.9429" stroke="#2E2E2E" stroke-miterlimit="10"/>
<path d="M199.286 36.2429L199.668 -23.7958" stroke="#2E2E2E" stroke-miterlimit="10"/>
<path d="M147.106 65.9318L199.286 36.2431" stroke="#2E2E2E" stroke-miterlimit="10"/>
<path d="M147.488 5.89298L147.106 65.9317" stroke="#2E2E2E" stroke-miterlimit="10"/>
<path d="M302.892 96.9432L302.51 156.972" stroke="#2E2E2E" stroke-miterlimit="10"/>
<path d="M459.059 67.9159L407.261 37.5659" stroke="#2E2E2E" stroke-miterlimit="10"/>
<path d="M355.072 67.2544L406.88 97.6046" stroke="#2E2E2E" stroke-miterlimit="10"/>
<path d="M406.88 97.6046L459.059 67.9159" stroke="#2E2E2E" stroke-miterlimit="10"/>
<path d="M406.88 97.6046L406.498 157.633L354.308 187.322" stroke="#2E2E2E" stroke-miterlimit="10"/>
<path d="M303.655 -23.1344L303.274 36.9044" stroke="#2E2E2E" stroke-miterlimit="10"/>
<path d="M355.072 67.2544L407.261 37.5658" stroke="#2E2E2E" stroke-miterlimit="10"/>
<path d="M355.453 7.21574L355.072 67.2545" stroke="#2E2E2E" stroke-miterlimit="10"/>
<path d="M354.69 127.293L355.072 67.2545" stroke="#2E2E2E" stroke-miterlimit="10"/>
<path d="M302.51 156.972L354.69 127.293" stroke="#2E2E2E" stroke-miterlimit="10"/>
<path d="M302.892 96.9432L355.072 67.2545" stroke="#2E2E2E" stroke-miterlimit="10"/>
<path d="M354.69 127.293L406.498 157.633" stroke="#2E2E2E" stroke-miterlimit="10"/>
<path d="M459.06 67.9159L458.678 127.955" stroke="#2E2E2E" stroke-miterlimit="10"/>
<path d="M458.678 127.955L510.476 158.295" stroke="#2E2E2E" stroke-miterlimit="10"/>
<path d="M563.047 68.5773L511.239 38.2272" stroke="#2E2E2E" stroke-miterlimit="10"/>
<path d="M511.239 38.2272L459.06 67.9158" stroke="#2E2E2E" stroke-miterlimit="10"/>
<path d="M459.06 67.9159L510.858 98.266" stroke="#2E2E2E" stroke-miterlimit="10"/>
<path d="M510.858 98.2659L563.047 68.5773" stroke="#2E2E2E" stroke-miterlimit="10"/>
<path d="M510.858 98.2659L510.476 158.295" stroke="#2E2E2E" stroke-miterlimit="10"/>
<path d="M563.047 68.5773L562.666 128.616" stroke="#2E2E2E" stroke-miterlimit="10"/>
<path d="M667.025 69.2385L615.227 38.8885" stroke="#2E2E2E" stroke-miterlimit="10"/>
<path d="M615.227 38.8885L563.047 68.5772" stroke="#2E2E2E" stroke-miterlimit="10"/>
<path d="M563.047 68.5772L614.845 98.9272" stroke="#2E2E2E" stroke-miterlimit="10"/>
<path d="M614.845 98.9273L667.025 69.2386" stroke="#2E2E2E" stroke-miterlimit="10"/>
<path d="M614.845 98.9273L614.463 158.956" stroke="#2E2E2E" stroke-miterlimit="10"/>
<path d="M510.476 158.295L510.094 218.333" stroke="#2E2E2E" stroke-miterlimit="10"/>
<path d="M614.463 158.956L562.665 128.616" stroke="#2E2E2E" stroke-miterlimit="10"/>
<path d="M562.666 128.616L510.476 158.295" stroke="#2E2E2E" stroke-miterlimit="10"/>
<path d="M510.476 158.295L562.284 188.645" stroke="#2E2E2E" stroke-miterlimit="10"/>
<path d="M562.284 188.645L614.463 158.956" stroke="#2E2E2E" stroke-miterlimit="10"/>
<path d="M667.025 69.2387L666.643 129.277" stroke="#2E2E2E" stroke-miterlimit="10"/>
<path d="M771.013 69.9L719.205 39.5499" stroke="#2E2E2E" stroke-miterlimit="10"/>
<path d="M719.205 39.5497L667.025 69.2384" stroke="#2E2E2E" stroke-miterlimit="10"/>
<path d="M667.025 69.2385L718.823 99.5886" stroke="#2E2E2E" stroke-miterlimit="10"/>
<path d="M718.823 99.5886L718.441 159.617" stroke="#2E2E2E" stroke-miterlimit="10"/>
<path d="M718.441 159.617L666.643 129.277" stroke="#2E2E2E" stroke-miterlimit="10"/>
<path d="M666.643 129.277L614.463 158.956" stroke="#2E2E2E" stroke-miterlimit="10"/>
<path d="M614.463 158.956L666.261 189.306" stroke="#2E2E2E" stroke-miterlimit="10"/>
<path d="M666.261 189.306L718.441 159.617" stroke="#2E2E2E" stroke-miterlimit="10"/>
<path d="M666.261 189.306L665.88 249.345" stroke="#2E2E2E" stroke-miterlimit="10"/>
<path d="M771.013 69.9L770.631 129.939" stroke="#2E2E2E" stroke-miterlimit="10"/>
<path d="M874.991 70.5614L823.193 40.2114" stroke="#2E2E2E" stroke-miterlimit="10"/>
<path d="M823.193 40.2113L771.013 69.9" stroke="#2E2E2E" stroke-miterlimit="10"/>
<path d="M771.013 69.9L822.811 100.25" stroke="#2E2E2E" stroke-miterlimit="10"/>
<path d="M822.811 100.25L874.991 70.5614" stroke="#2E2E2E" stroke-miterlimit="10"/>
<path d="M874.991 70.5614L874.609 130.6" stroke="#2E2E2E" stroke-miterlimit="10"/>
<path d="M978.979 71.2227L927.181 40.8727" stroke="#2E2E2E" stroke-miterlimit="10"/>
<path d="M927.181 40.8727L874.991 70.5613" stroke="#2E2E2E" stroke-miterlimit="10"/>
<path d="M926.417 160.94L978.597 131.262" stroke="#2E2E2E" stroke-miterlimit="10"/>
<path d="M874.991 70.5614L926.799 100.911" stroke="#2E2E2E" stroke-miterlimit="10"/>
<path d="M926.799 100.911L978.979 71.2227" stroke="#2E2E2E" stroke-miterlimit="10"/>
<path d="M926.799 100.912L926.417 160.94" stroke="#2E2E2E" stroke-miterlimit="10"/>
<path d="M718.441 159.617L718.059 219.656" stroke="#2E2E2E" stroke-miterlimit="10"/>
<path d="M822.429 160.279L770.631 129.939" stroke="#2E2E2E" stroke-miterlimit="10"/>
<path d="M770.631 129.939L718.442 159.618" stroke="#2E2E2E" stroke-miterlimit="10"/>
<path d="M718.441 159.617L770.249 189.968" stroke="#2E2E2E" stroke-miterlimit="10"/>
<path d="M770.25 189.968L822.429 160.279" stroke="#2E2E2E" stroke-miterlimit="10"/>
<path d="M770.249 189.968L769.868 250.006" stroke="#2E2E2E" stroke-miterlimit="10"/>
<path d="M926.417 160.94L874.609 130.6" stroke="#2E2E2E" stroke-miterlimit="10"/>
<path d="M874.609 130.6L822.429 160.279" stroke="#2E2E2E" stroke-miterlimit="10"/>
<path d="M926.035 220.979L926.417 160.94" stroke="#2E2E2E" stroke-miterlimit="10"/>
<path d="M822.429 160.279L874.227 190.629" stroke="#2E2E2E" stroke-miterlimit="10"/>
<path d="M874.227 190.629L926.417 160.94" stroke="#2E2E2E" stroke-miterlimit="10"/>
<path d="M874.227 190.629L873.846 250.668" stroke="#2E2E2E" stroke-miterlimit="10"/>
<path d="M769.486 310.045L821.284 340.385" stroke="#2E2E2E" stroke-miterlimit="10"/>
<path d="M873.846 250.668L822.048 220.318" stroke="#2E2E2E" stroke-miterlimit="10"/>
<path d="M822.048 220.318L769.868 250.006" stroke="#2E2E2E" stroke-miterlimit="10"/>
<path d="M873.464 310.707L873.846 250.668" stroke="#2E2E2E" stroke-miterlimit="10"/>
<path d="M769.868 250.006L821.666 280.356" stroke="#2E2E2E" stroke-miterlimit="10"/>
<path d="M821.666 280.357L873.846 250.668" stroke="#2E2E2E" stroke-miterlimit="10"/>
<path d="M769.868 250.006L718.06 219.656" stroke="#2E2E2E" stroke-miterlimit="10"/>
<path d="M718.059 219.656L665.879 249.345" stroke="#2E2E2E" stroke-miterlimit="10"/>
<path d="M769.486 310.045L769.868 250.006" stroke="#2E2E2E" stroke-miterlimit="10"/>
<path d="M665.879 249.345L717.677 279.695" stroke="#2E2E2E" stroke-miterlimit="10"/>
<path d="M717.678 279.695L769.868 250.006" stroke="#2E2E2E" stroke-miterlimit="10"/>
<path d="M717.678 279.695L717.296 339.724L769.486 310.045" stroke="#2E2E2E" stroke-miterlimit="10"/>
<path d="M665.88 249.345L613.7 279.034" stroke="#2E2E2E" stroke-miterlimit="10"/>
<path d="M769.104 370.074L769.486 310.045" stroke="#2E2E2E" stroke-miterlimit="10"/>
<path d="M562.284 188.645L561.902 248.684L614.082 218.995L614.463 158.956L614.082 218.995" stroke="#2E2E2E" stroke-miterlimit="10"/>
<path d="M407.643 -22.473L407.261 37.5657L355.072 67.2543" stroke="black" stroke-miterlimit="10"/>
<path d="M355.453 7.21568L355.072 67.2544" stroke="black" stroke-miterlimit="10"/>
<path d="M250.712 126.632L198.522 156.31" stroke="black" stroke-miterlimit="10"/>
<path d="M198.522 156.31L250.33 186.661L302.51 156.972" stroke="black" stroke-miterlimit="10"/>
<path d="M-60.8598 64.6089L-8.68 34.9202L43.118 65.2702" stroke="black" stroke-miterlimit="10"/>
<path d="M42.7361 125.309L43.118 65.2703" stroke="black" stroke-miterlimit="10"/>
<path d="M43.118 65.2702L-9.06187 94.9589L-60.8598 64.6089" stroke="black" stroke-miterlimit="10"/>
<path d="M95.3077 35.5816L43.1179 65.2702" stroke="black" stroke-miterlimit="10"/>
<path d="M146.724 125.97L147.106 65.9316" stroke="black" stroke-miterlimit="10"/>
<path d="M94.5441 155.649L146.724 125.97" stroke="black" stroke-miterlimit="10"/>
<path d="M43.1179 65.2702L94.9259 95.6204" stroke="black" stroke-miterlimit="10"/>
<path d="M94.9259 95.6204L147.106 65.9317" stroke="black" stroke-miterlimit="10"/>
<path d="M94.9259 95.6204L94.5441 155.649" stroke="black" stroke-miterlimit="10"/>
<path d="M146.724 125.97L198.522 156.31" stroke="black" stroke-miterlimit="10"/>
<path d="M251.094 66.593L199.286 36.2429" stroke="black" stroke-miterlimit="10"/>
<path d="M250.712 126.632L251.094 66.5931" stroke="black" stroke-miterlimit="10"/>
<path d="M147.106 65.9316L198.904 96.2817" stroke="black" stroke-miterlimit="10"/>
<path d="M198.904 96.2817L251.094 66.593" stroke="black" stroke-miterlimit="10"/>
<path d="M198.904 96.2817L198.522 156.31" stroke="black" stroke-miterlimit="10"/>
<path d="M250.712 126.632L302.51 156.972" stroke="black" stroke-miterlimit="10"/>
<path d="M251.094 66.593L303.274 36.9043L303.655 -23.1344L303.274 36.9043" stroke="black" stroke-miterlimit="10"/>
<path d="M251.094 66.593L302.892 96.9431" stroke="black" stroke-miterlimit="10"/>
<path d="M302.892 96.9431L355.072 67.2544" stroke="black" stroke-miterlimit="10"/>
<path d="M302.892 96.9432L302.51 156.972" stroke="black" stroke-miterlimit="10"/>
<path d="M95.6896 -24.4572L95.3078 35.5815" stroke="black" stroke-miterlimit="10"/>
<path d="M95.3077 35.5815L147.106 65.9316" stroke="black" stroke-miterlimit="10"/>
<path d="M199.286 36.2429L199.667 -23.7958" stroke="black" stroke-miterlimit="10"/>
<path d="M147.106 65.9316L199.286 36.2429" stroke="black" stroke-miterlimit="10"/>
<path d="M147.488 5.89286L147.106 65.9316" stroke="black" stroke-miterlimit="10"/>
<path d="M562.666 128.616L510.476 158.295L458.678 127.955" stroke="black" stroke-miterlimit="10"/>
<path d="M510.858 98.2659L563.047 68.5772" stroke="black" stroke-miterlimit="10"/>
<path d="M563.047 68.5773L562.666 128.616" stroke="black" stroke-miterlimit="10"/>
<path d="M667.025 69.2385L615.227 38.8885" stroke="black" stroke-miterlimit="10"/>
<path d="M615.227 38.8884L563.047 68.5771" stroke="black" stroke-miterlimit="10"/>
<path d="M563.047 68.5772L614.845 98.9273" stroke="black" stroke-miterlimit="10"/>
<path d="M614.845 98.9273L667.025 69.2386" stroke="black" stroke-miterlimit="10"/>
<path d="M614.845 98.9273L614.463 158.956" stroke="black" stroke-miterlimit="10"/>
<path d="M614.463 158.956L562.665 128.616" stroke="black" stroke-miterlimit="10"/>
<path d="M562.284 188.645L614.463 158.956" stroke="black" stroke-miterlimit="10"/>
<path d="M718.441 159.617L666.643 129.277L667.025 69.2385" stroke="black" stroke-miterlimit="10"/>
<path d="M771.013 69.9L719.205 39.5499" stroke="black" stroke-miterlimit="10"/>
<path d="M667.025 69.2384L718.823 99.5885" stroke="black" stroke-miterlimit="10"/>
<path d="M718.823 99.5886L718.441 159.617" stroke="black" stroke-miterlimit="10"/>
<path d="M614.463 158.956L614.081 218.995" stroke="black" stroke-miterlimit="10"/>
<path d="M614.463 158.956L666.261 189.306" stroke="black" stroke-miterlimit="10"/>
<path d="M666.261 189.306L718.441 159.617" stroke="black" stroke-miterlimit="10"/>
<path d="M874.991 70.5613L823.193 40.2113" stroke="black" stroke-miterlimit="10"/>
<path d="M823.193 40.2113L771.013 69.9" stroke="black" stroke-miterlimit="10"/>
<path d="M771.013 69.9L822.811 100.25" stroke="black" stroke-miterlimit="10"/>
<path d="M822.811 100.25L874.991 70.5614" stroke="black" stroke-miterlimit="10"/>
<path d="M874.991 70.5614L874.609 130.6" stroke="black" stroke-miterlimit="10"/>
<path d="M978.979 71.2227L927.181 40.8727" stroke="black" stroke-miterlimit="10"/>
<path d="M927.181 40.8727L874.991 70.5613" stroke="black" stroke-miterlimit="10"/>
<path d="M926.417 160.94L978.597 131.262" stroke="black" stroke-miterlimit="10"/>
<path d="M874.991 70.5614L926.799 100.911" stroke="black" stroke-miterlimit="10"/>
<path d="M926.799 100.912L978.979 71.2228" stroke="black" stroke-miterlimit="10"/>
<path d="M926.799 100.912L926.417 160.94" stroke="black" stroke-miterlimit="10"/>
<path d="M770.631 129.939L718.441 159.617L770.631 129.939ZM770.631 129.939L771.013 69.9001L770.631 129.939Z" stroke="black" stroke-miterlimit="10"/>
<path d="M718.441 159.617L770.249 189.968" stroke="black" stroke-miterlimit="10"/>
<path d="M770.249 189.968L822.429 160.279" stroke="black" stroke-miterlimit="10"/>
<path d="M770.249 189.968L769.868 250.006" stroke="black" stroke-miterlimit="10"/>
<path d="M926.417 160.94L874.609 130.6" stroke="black" stroke-miterlimit="10"/>
<path d="M874.609 130.6L822.429 160.279" stroke="black" stroke-miterlimit="10"/>
<path d="M926.035 220.979L926.417 160.94" stroke="black" stroke-miterlimit="10"/>
<path d="M873.846 250.668L926.035 220.979" stroke="black" stroke-miterlimit="10"/>
<path d="M822.429 160.279L874.227 190.629" stroke="black" stroke-miterlimit="10"/>
<path d="M874.227 190.629L926.417 160.94" stroke="black" stroke-miterlimit="10"/>
<path d="M874.227 190.629L873.845 250.668" stroke="black" stroke-miterlimit="10"/>
<path d="M873.845 250.668L822.047 220.318" stroke="black" stroke-miterlimit="10"/>
<path d="M822.048 220.318L769.868 250.006" stroke="black" stroke-miterlimit="10"/>
<path d="M873.464 310.706L873.846 250.668" stroke="black" stroke-miterlimit="10"/>
<path d="M821.284 340.385L873.464 310.706" stroke="black" stroke-miterlimit="10"/>
<path d="M769.868 250.006L821.666 280.356" stroke="black" stroke-miterlimit="10"/>
<path d="M821.666 280.356L873.846 250.668" stroke="black" stroke-miterlimit="10"/>
<path d="M718.06 219.656L769.868 250.006L718.06 219.656ZM718.06 219.656L665.88 249.345L666.262 189.306L665.88 249.345" stroke="black" stroke-miterlimit="10"/>
<path d="M769.486 310.045L717.296 339.724L717.678 279.695L769.868 250.006" stroke="black" stroke-miterlimit="10"/>
<path d="M355.072 67.2544L406.88 97.6046" stroke="black" stroke-miterlimit="10"/>
<path d="M406.88 97.6045L459.06 67.9158L510.858 98.2659L459.06 67.9158" stroke="black" stroke-miterlimit="10"/>
<path d="M355.072 67.2544L354.69 127.293L355.072 67.2544ZM355.072 67.2544L354.69 127.293L406.498 157.633L406.88 97.6046" stroke="black" stroke-miterlimit="10"/>
<path d="M510.858 98.2659L510.476 158.295" stroke="black" stroke-miterlimit="10"/>
</svg>
