<svg width="921" height="343" viewBox="0 0 921 343" fill="none" xmlns="http://www.w3.org/2000/svg">
<path d="M815.679 300.9L763.767 331.054L711.7 301.168" stroke="#2E2E2E" stroke-miterlimit="10"/>
<path d="M815.679 300.9L763.612 271.014L711.699 301.167" stroke="#2E2E2E" stroke-miterlimit="10"/>
<path d="M659.777 331.321L711.7 301.168" stroke="#2E2E2E" stroke-miterlimit="10"/>
<path d="M711.7 301.167L659.623 271.281" stroke="#2E2E2E" stroke-miterlimit="10"/>
<path d="M659.622 271.281L607.71 301.435" stroke="#2E2E2E" stroke-miterlimit="10"/>
<path d="M659.622 271.281L659.468 211.251L607.555 241.395" stroke="#2E2E2E" stroke-miterlimit="10"/>
<path d="M659.931 391.361L659.777 331.321" stroke="#2E2E2E" stroke-miterlimit="10"/>
<path d="M659.777 331.321L607.71 301.435" stroke="#2E2E2E" stroke-miterlimit="10"/>
<path d="M815.679 300.9L867.756 330.786" stroke="#2E2E2E" stroke-miterlimit="10"/>
<path d="M867.447 210.717L815.524 240.86L815.678 300.9" stroke="#2E2E2E" stroke-miterlimit="10"/>
<path d="M815.524 240.86L867.601 270.746" stroke="#2E2E2E" stroke-miterlimit="10"/>
<path d="M867.602 270.747L919.514 240.593L919.669 300.633L867.756 330.786" stroke="#2E2E2E" stroke-miterlimit="10"/>
<path d="M867.602 270.747L867.756 330.786" stroke="#2E2E2E" stroke-miterlimit="10"/>
<path d="M763.612 271.014L763.458 210.984L711.545 241.128L711.7 301.167" stroke="#2E2E2E" stroke-miterlimit="10"/>
<path d="M555.488 211.519L503.411 181.633" stroke="#2E2E2E" stroke-miterlimit="10"/>
<path d="M503.411 181.633L451.499 211.786" stroke="#2E2E2E" stroke-miterlimit="10"/>
<path d="M607.553 240.395L607.707 300.435" stroke="#2E2E2E" stroke-miterlimit="10"/>
<path d="M607.555 241.395L555.488 211.519" stroke="#2E2E2E" stroke-miterlimit="10"/>
<path d="M503.72 301.702L555.797 331.588" stroke="#2E2E2E" stroke-miterlimit="10"/>
<path d="M503.566 241.662L503.72 301.702" stroke="#2E2E2E" stroke-miterlimit="10"/>
<path d="M555.488 211.519L503.566 241.662" stroke="#2E2E2E" stroke-miterlimit="10"/>
<path d="M607.71 301.435L555.643 271.548" stroke="#2E2E2E" stroke-miterlimit="10"/>
<path d="M555.643 271.548L503.72 301.702" stroke="#2E2E2E" stroke-miterlimit="10"/>
<path d="M555.643 271.549L555.488 211.519" stroke="#2E2E2E" stroke-miterlimit="10"/>
<path d="M503.566 241.662L451.499 211.786" stroke="#2E2E2E" stroke-miterlimit="10"/>
<path d="M451.808 331.856L503.72 301.702" stroke="#2E2E2E" stroke-miterlimit="10"/>
<path d="M503.72 301.702L451.653 271.816" stroke="#2E2E2E" stroke-miterlimit="10"/>
<path d="M555.797 331.588L555.951 391.628" stroke="#2E2E2E" stroke-miterlimit="10"/>
<path d="M607.71 301.435L555.797 331.588" stroke="#2E2E2E" stroke-miterlimit="10"/>
<path d="M607.864 361.475L607.71 301.435" stroke="#2E2E2E" stroke-miterlimit="10"/>
<path d="M451.653 271.816L451.499 211.786" stroke="#2E2E2E" stroke-miterlimit="10"/>
<path d="M295.751 302.237L347.818 332.123" stroke="#2E2E2E" stroke-miterlimit="10"/>
<path d="M399.74 301.969L347.663 272.083" stroke="#2E2E2E" stroke-miterlimit="10"/>
<path d="M347.663 272.083L295.751 302.237" stroke="#2E2E2E" stroke-miterlimit="10"/>
<path d="M347.663 272.083L347.509 212.053L399.432 181.9" stroke="#2E2E2E" stroke-miterlimit="10"/>
<path d="M451.962 391.895L451.807 331.856" stroke="#2E2E2E" stroke-miterlimit="10"/>
<path d="M399.74 301.969L347.818 332.123" stroke="#2E2E2E" stroke-miterlimit="10"/>
<path d="M399.895 362.009L399.74 301.969" stroke="#2E2E2E" stroke-miterlimit="10"/>
<path d="M399.586 241.93L399.74 301.969" stroke="#2E2E2E" stroke-miterlimit="10"/>
<path d="M451.499 211.786L399.586 241.929" stroke="#2E2E2E" stroke-miterlimit="10"/>
<path d="M451.653 271.816L399.74 301.969" stroke="#2E2E2E" stroke-miterlimit="10"/>
<path d="M399.586 241.93L347.509 212.053" stroke="#2E2E2E" stroke-miterlimit="10"/>
<path d="M295.751 302.237L295.596 242.197" stroke="#2E2E2E" stroke-miterlimit="10"/>
<path d="M295.596 242.197L243.529 212.321" stroke="#2E2E2E" stroke-miterlimit="10"/>
<path d="M191.761 302.504L243.838 332.39" stroke="#2E2E2E" stroke-miterlimit="10"/>
<path d="M243.838 332.39L295.751 302.237" stroke="#2E2E2E" stroke-miterlimit="10"/>
<path d="M295.751 302.237L243.684 272.35" stroke="#2E2E2E" stroke-miterlimit="10"/>
<path d="M243.684 272.35L191.761 302.504" stroke="#2E2E2E" stroke-miterlimit="10"/>
<path d="M243.684 272.35L243.529 212.321" stroke="#2E2E2E" stroke-miterlimit="10"/>
<path d="M191.761 302.504L191.607 242.464" stroke="#2E2E2E" stroke-miterlimit="10"/>
<path d="M87.7815 302.771L139.849 332.658" stroke="#2E2E2E" stroke-miterlimit="10"/>
<path d="M139.848 332.658L191.761 302.504" stroke="#2E2E2E" stroke-miterlimit="10"/>
<path d="M191.761 302.504L139.694 272.618" stroke="#2E2E2E" stroke-miterlimit="10"/>
<path d="M139.694 272.618L87.7815 302.771" stroke="#2E2E2E" stroke-miterlimit="10"/>
<path d="M139.694 272.618L139.54 212.588" stroke="#2E2E2E" stroke-miterlimit="10"/>
<path d="M243.529 212.321L243.375 152.281" stroke="#2E2E2E" stroke-miterlimit="10"/>
<path d="M139.54 212.588L191.607 242.464" stroke="#2E2E2E" stroke-miterlimit="10"/>
<path d="M191.607 242.464L243.529 212.321" stroke="#2E2E2E" stroke-miterlimit="10"/>
<path d="M243.529 212.321L191.452 182.434" stroke="#2E2E2E" stroke-miterlimit="10"/>
<path d="M191.452 182.434L139.54 212.588" stroke="#2E2E2E" stroke-miterlimit="10"/>
<path d="M87.7812 302.771L87.6269 242.731" stroke="#2E2E2E" stroke-miterlimit="10"/>
<path d="M-16.2083 303.039L35.8688 332.925" stroke="#2E2E2E" stroke-miterlimit="10"/>
<path d="M35.8686 332.925L87.7813 302.771" stroke="#2E2E2E" stroke-miterlimit="10"/>
<path d="M87.7812 302.771L35.7142 272.885" stroke="#2E2E2E" stroke-miterlimit="10"/>
<path d="M35.7143 272.885L35.5599 212.855" stroke="#2E2E2E" stroke-miterlimit="10"/>
<path d="M35.5599 212.855L87.6269 242.731" stroke="#2E2E2E" stroke-miterlimit="10"/>
<path d="M87.6269 242.731L139.54 212.588" stroke="#2E2E2E" stroke-miterlimit="10"/>
<path d="M139.54 212.588L87.4728 182.702" stroke="#2E2E2E" stroke-miterlimit="10"/>
<path d="M87.4726 182.702L35.56 212.855" stroke="#2E2E2E" stroke-miterlimit="10"/>
<path d="M87.4728 182.702L87.3185 122.662" stroke="#2E2E2E" stroke-miterlimit="10"/>
<path d="M35.5599 212.855L35.4056 152.815" stroke="#2E2E2E" stroke-miterlimit="10"/>
<path d="M-16.3627 242.999L35.5599 212.855" stroke="#2E2E2E" stroke-miterlimit="10"/>
<path d="M35.5599 212.855L-16.5171 182.969" stroke="#2E2E2E" stroke-miterlimit="10"/>
<path d="M-16.6714 122.929L35.4056 152.815" stroke="#2E2E2E" stroke-miterlimit="10"/>
<path d="M35.4056 152.815L87.3182 122.662" stroke="#2E2E2E" stroke-miterlimit="10"/>
<path d="M87.3182 122.662L35.2512 92.7756" stroke="#2E2E2E" stroke-miterlimit="10"/>
<path d="M35.2512 92.7756L-16.6714 122.929" stroke="#2E2E2E" stroke-miterlimit="10"/>
<path d="M35.2513 92.7756L35.0969 32.7458L-16.8257 62.8894" stroke="#2E2E2E" stroke-miterlimit="10"/>
<path d="M87.3184 122.662L139.231 92.5083" stroke="#2E2E2E" stroke-miterlimit="10"/>
<path d="M191.452 182.434L191.298 122.395L139.385 152.548L139.54 212.588L139.385 152.548" stroke="#2E2E2E" stroke-miterlimit="10"/>
<path d="M347.972 392.163L347.818 332.123L399.74 301.969" stroke="black" stroke-miterlimit="10"/>
<path d="M399.895 362.009L399.74 301.969" stroke="black" stroke-miterlimit="10"/>
<path d="M503.566 241.662L555.488 211.519" stroke="black" stroke-miterlimit="10"/>
<path d="M555.488 211.519L503.411 181.632L451.499 211.786" stroke="black" stroke-miterlimit="10"/>
<path d="M815.679 300.9L763.766 331.054L711.699 301.167" stroke="black" stroke-miterlimit="10"/>
<path d="M711.545 241.128L711.699 301.167" stroke="black" stroke-miterlimit="10"/>
<path d="M711.699 301.167L763.612 271.014L815.679 300.9" stroke="black" stroke-miterlimit="10"/>
<path d="M659.777 331.321L711.699 301.167" stroke="black" stroke-miterlimit="10"/>
<path d="M607.555 241.395L607.71 301.435" stroke="black" stroke-miterlimit="10"/>
<path d="M659.468 211.251L607.555 241.395" stroke="black" stroke-miterlimit="10"/>
<path d="M711.699 301.167L659.622 271.281" stroke="black" stroke-miterlimit="10"/>
<path d="M659.622 271.281L607.71 301.435" stroke="black" stroke-miterlimit="10"/>
<path d="M659.622 271.281L659.468 211.251" stroke="black" stroke-miterlimit="10"/>
<path d="M607.555 241.395L555.488 211.519" stroke="black" stroke-miterlimit="10"/>
<path d="M503.72 301.702L555.797 331.588" stroke="black" stroke-miterlimit="10"/>
<path d="M503.566 241.662L503.72 301.702" stroke="black" stroke-miterlimit="10"/>
<path d="M607.71 301.435L555.643 271.548" stroke="black" stroke-miterlimit="10"/>
<path d="M555.643 271.548L503.72 301.702" stroke="black" stroke-miterlimit="10"/>
<path d="M555.643 271.548L555.488 211.519" stroke="black" stroke-miterlimit="10"/>
<path d="M503.566 241.662L451.499 211.786" stroke="black" stroke-miterlimit="10"/>
<path d="M503.72 301.702L451.807 331.856L451.962 391.895L451.807 331.856" stroke="black" stroke-miterlimit="10"/>
<path d="M503.72 301.702L451.653 271.816" stroke="black" stroke-miterlimit="10"/>
<path d="M451.653 271.816L399.74 301.969" stroke="black" stroke-miterlimit="10"/>
<path d="M451.653 271.816L451.499 211.786" stroke="black" stroke-miterlimit="10"/>
<path d="M659.931 391.361L659.777 331.321" stroke="black" stroke-miterlimit="10"/>
<path d="M659.777 331.321L607.71 301.435" stroke="black" stroke-miterlimit="10"/>
<path d="M555.797 331.588L555.951 391.628" stroke="black" stroke-miterlimit="10"/>
<path d="M607.71 301.435L555.797 331.588" stroke="black" stroke-miterlimit="10"/>
<path d="M607.864 361.474L607.71 301.435" stroke="black" stroke-miterlimit="10"/>
<path d="M815.524 240.86L815.679 300.9" stroke="black" stroke-miterlimit="10"/>
<path d="M815.679 300.9L867.756 330.786L919.668 300.633" stroke="black" stroke-miterlimit="10"/>
<path d="M867.601 270.746L867.756 330.786" stroke="black" stroke-miterlimit="10"/>
<path d="M191.607 242.464L243.529 212.321L295.596 242.197" stroke="black" stroke-miterlimit="10"/>
<path d="M243.684 272.35L191.761 302.504" stroke="black" stroke-miterlimit="10"/>
<path d="M191.761 302.504L191.607 242.464" stroke="black" stroke-miterlimit="10"/>
<path d="M87.7812 302.771L139.848 332.657" stroke="black" stroke-miterlimit="10"/>
<path d="M139.848 332.658L191.761 302.504" stroke="black" stroke-miterlimit="10"/>
<path d="M191.761 302.504L139.694 272.618" stroke="black" stroke-miterlimit="10"/>
<path d="M139.694 272.618L87.7815 302.772" stroke="black" stroke-miterlimit="10"/>
<path d="M139.694 272.618L139.54 212.588" stroke="black" stroke-miterlimit="10"/>
<path d="M139.54 212.588L191.607 242.464" stroke="black" stroke-miterlimit="10"/>
<path d="M191.452 182.434L139.54 212.588" stroke="black" stroke-miterlimit="10"/>
<path d="M35.5599 212.855L87.6269 242.731L87.7813 302.771" stroke="black" stroke-miterlimit="10"/>
<path d="M-16.2084 303.039L35.8686 332.925" stroke="black" stroke-miterlimit="10"/>
<path d="M87.7813 302.771L35.7143 272.885" stroke="black" stroke-miterlimit="10"/>
<path d="M35.7143 272.885L35.5599 212.855" stroke="black" stroke-miterlimit="10"/>
<path d="M139.54 212.588L139.385 152.548" stroke="black" stroke-miterlimit="10"/>
<path d="M139.54 212.588L87.4728 182.702" stroke="black" stroke-miterlimit="10"/>
<path d="M87.4726 182.702L35.56 212.855" stroke="black" stroke-miterlimit="10"/>
<path d="M-16.3627 242.999L35.5599 212.855L-16.3627 242.999ZM-16.3627 242.999L-16.2084 303.039L-16.3627 242.999Z" stroke="black" stroke-miterlimit="10"/>
<path d="M35.5599 212.855L-16.5171 182.969" stroke="black" stroke-miterlimit="10"/>
<path d="M35.4056 152.815L-16.6714 122.929L35.4056 152.815ZM35.4056 152.815L87.3183 122.662L87.4726 182.702L87.3183 122.662" stroke="black" stroke-miterlimit="10"/>
<path d="M-16.8257 62.8894L35.0969 32.7458L35.2513 92.7756L-16.6714 122.929" stroke="black" stroke-miterlimit="10"/>
<path d="M399.74 301.969L347.663 272.083" stroke="black" stroke-miterlimit="10"/>
<path d="M347.663 272.083L295.751 302.237L243.684 272.35L295.751 302.237" stroke="black" stroke-miterlimit="10"/>
<path d="M399.74 301.969L399.586 241.93L399.74 301.969ZM399.74 301.969L399.586 241.93L347.509 212.053L347.663 272.083" stroke="black" stroke-miterlimit="10"/>
<path d="M243.684 272.35L243.529 212.321" stroke="black" stroke-miterlimit="10"/>
</svg>
