<svg width="98" height="98" viewBox="0 0 98 98" fill="none" xmlns="http://www.w3.org/2000/svg">
<path fill-rule="evenodd" clip-rule="evenodd" d="M49 12.25C38.8518 12.25 29.6643 16.3634 23.0138 23.0138C16.3634 29.6643 12.25 38.8518 12.25 49C12.25 59.1482 16.3634 68.3357 23.0138 74.9862C29.6643 81.6366 38.8518 85.75 49 85.75C59.1482 85.75 68.3357 81.6366 74.9862 74.9862C81.6366 68.3357 85.75 59.1482 85.75 49C85.75 38.8518 81.6366 29.6643 74.9862 23.0138C68.3357 16.3634 59.1482 12.25 49 12.25Z" stroke="#383736" stroke-width="4" stroke-linecap="round" stroke-linejoin="round"/>
<path d="M49 32.6667L49 49.0001" stroke="#383736" stroke-width="4" stroke-linecap="round" stroke-linejoin="round"/>
<path d="M49 49L57.1667 57.1667" stroke="#383736" stroke-width="4" stroke-linecap="round" stroke-linejoin="round"/>
</svg>
